# xmcd
#
# Track frame offsets: 
#        150
#        20132
#        40625
#        61422
#        76507
#        94689
#        114479
#        131838
#        148257
#        166013
#        186185
#
# Disc length: 2632 seconds
#
# Revision: 0
# Processed by: cddbd v1.5.2PL0 Copyright (c) Steve Scherf et al.
# Submitted via: ExactAudioCopy v0.99pb5
#
DISCID=8c0a460b
DTITLE=Latch Key Kid - Miracle Mile
DYEAR=1900
DGENRE=Country
TTITLE0=Turn It Out
TTITLE1=Streets Of Gold
TTITLE2=Angel In The Alleyway
TTITLE3=Fountain Of Youth
TTITLE4=Coming Home Soon
TTITLE5=Time Will Take Away
TTITLE6=Miracle Mile
TTITLE7=Sidewalk Song
TTITLE8=Latch Key Kid
TTITLE9=Thin Air
TTITLE10=Good Times (Bonus Track)
EXTD=
EXTT0=
EXTT1=
EXTT2=
EXTT3=
EXTT4=
EXTT5=
EXTT6=
EXTT7=
EXTT8=
EXTT9=
EXTT10=
PLAYORDER=
